<?xml version="1.0" standalone="no"?>
<!DOCTYPE svg PUBLIC "-//W3C//DTD SVG 20010904//EN"
 "http://www.w3.org/TR/2001/REC-SVG-20010904/DTD/svg10.dtd">
<svg version="1.0" xmlns="http://www.w3.org/2000/svg"
 width="28px" height="28px" viewBox="0 0 32.000000 32.000000"
 preserveAspectRatio="xMidYMid meet">

<g transform="translate(0.000000,32.000000) scale(0.100000,-0.100000)"
fill="#111827" stroke="none">
<path d="M95 306 c-124 -56 -123 -240 2 -292 42 -18 97 -19 89 -1 -2 6 -10 31
-17 55 -9 34 -16 42 -35 42 -17 0 -24 6 -24 20 0 13 7 20 18 20 23 0 42 19 42
42 0 11 7 18 20 18 15 0 20 -7 20 -25 0 -21 6 -26 40 -31 22 -4 43 -11 46 -15
3 -5 10 -9 16 -9 17 0 3 89 -19 118 -47 63 -133 88 -198 58z m0 -45 c-3 -6
-11 -11 -17 -11 -6 0 -6 6 2 15 14 17 26 13 15 -4z m55 -1 c0 -11 -7 -20 -15
-20 -17 0 -18 2 -9 24 9 23 24 20 24 -4z m44 4 c9 -22 8 -24 -9 -24 -8 0 -15
9 -15 20 0 24 15 27 24 4z m52 -11 c-7 -7 -26 7 -26 19 0 6 6 6 15 -2 9 -7 13
-15 11 -17z m-168 -56 c3 -23 0 -27 -22 -27 -26 0 -32 13 -20 45 10 25 39 13
42 -18z m206 17 c12 -31 6 -44 -19 -44 -20 0 -25 5 -25 23 0 38 32 53 44 21z
m-136 -21 c-5 -26 -38 -29 -38 -4 0 15 6 21 21 21 14 0 19 -5 17 -17z m-68
-68 c0 -29 -28 -45 -41 -24 -17 27 -10 49 16 49 20 0 25 -5 25 -25z m70 -65
c0 -11 -4 -20 -10 -20 -5 0 -10 2 -10 4 0 2 -3 11 -6 20 -4 11 -1 16 10 16 9
0 16 -8 16 -20z m-55 -1 c11 -17 -1 -21 -15 -4 -8 9 -8 15 -2 15 6 0 14 -5 17
-11z"/>
<path d="M177 143 c-6 -6 32 -124 44 -137 5 -6 14 4 22 24 9 21 26 38 47 47
20 8 30 17 24 22 -13 12 -131 50 -137 44z"/>
</g>
</svg>
